<svg width="34" height="35" viewBox="0 0 34 35" fill="none" xmlns="http://www.w3.org/2000/svg">
<path d="M3.03906 4.375H11.3607C12.8321 4.375 14.2432 4.98958 15.2836 6.08354C16.324 7.17751 16.9085 8.66124 16.9085 10.2083V30.625C16.9085 29.4647 16.4702 28.3519 15.6898 27.5314C14.9095 26.7109 13.8512 26.25 12.7477 26.25H3.03906V4.375Z" stroke="#FEFEFA" stroke-width="2" stroke-linecap="round" stroke-linejoin="round"/>
<path d="M30.7786 4.375H22.457C20.9856 4.375 19.5745 4.98958 18.5341 6.08354C17.4937 7.17751 16.9092 8.66124 16.9092 10.2083V30.625C16.9092 29.4647 17.3476 28.3519 18.1279 27.5314C18.9082 26.7109 19.9665 26.25 21.07 26.25H30.7786V4.375Z" stroke="#FEFEFA" stroke-width="2" stroke-linecap="round" stroke-linejoin="round"/>
</svg>
