<svg width="29" height="30" viewBox="0 0 29 30" fill="none" xmlns="http://www.w3.org/2000/svg">
<path d="M6.87547 26.7673L6.87516 26.7669C6.7804 26.6288 6.73123 26.4688 6.73085 26.3073C6.73085 26.3071 6.73085 26.3069 6.73085 26.3067L6.73 24.963H14.272L14.2697 26.3067V26.3072C14.2696 26.4682 14.2206 26.6281 14.1253 26.7671L14.1251 26.7673L13.1056 28.2548L13.1054 28.2551C13.0254 28.3718 12.9148 28.4707 12.7812 28.5402L13.2427 29.4273L12.7812 28.5402C12.6474 28.6098 12.4961 28.6471 12.3411 28.6471H8.65952C8.5045 28.6471 8.35321 28.6098 8.21943 28.5402L7.75789 29.4273L8.21942 28.5402C8.08578 28.4707 7.97518 28.3718 7.89523 28.2551L7.89504 28.2548L6.87547 26.7673ZM3.34095 16.2249L3.34091 16.2248C1.88028 14.6074 1 12.4991 1 10.191C1 5.35006 4.94078 1.01635 10.4701 1.00005L10.4702 1.00004C15.7594 0.984243 20 5.13314 20 10.191C20 12.4991 19.1197 14.6074 17.6591 16.2248L17.6591 16.2249C16.7191 17.2658 15.3065 19.3065 14.5603 21.2355H6.43966C5.6935 19.3065 4.28086 17.2658 3.34095 16.2249Z" stroke="#FEFEFA" stroke-width="2"/>
<path d="M23.4707 16.8818V25.9407" stroke="#FEFEFA" stroke-width="2" stroke-linecap="round" stroke-linejoin="round"/>
<path d="M18.9414 21.4121H28.0002" stroke="#FEFEFA" stroke-width="2" stroke-linecap="round" stroke-linejoin="round"/>
</svg>
