<svg width="28" height="28" viewBox="0 0 28 28" fill="none" xmlns="http://www.w3.org/2000/svg">
<path fill-rule="evenodd" clip-rule="evenodd" d="M13.988 2.33301C7.54801 2.33301 2.33301 7.55967 2.33301 13.9997C2.33301 20.4397 7.54801 25.6663 13.988 25.6663C20.4397 25.6663 25.6663 20.4397 25.6663 13.9997C25.6663 7.55967 20.4397 2.33301 13.988 2.33301ZM13.9997 23.333C8.84301 23.333 4.66634 19.1563 4.66634 13.9997C4.66634 8.84299 8.84301 4.66633 13.9997 4.66633C19.1563 4.66633 23.333 8.84299 23.333 13.9997C23.333 19.1563 19.1563 23.333 13.9997 23.333ZM12.833 8.16633H14.583V14.2913L19.833 17.4063L18.958 18.8413L12.833 15.1663V8.16633Z" fill="#4F4F4F"/>
</svg>
