<svg width="57" height="87" viewBox="0 0 57 87" fill="none" xmlns="http://www.w3.org/2000/svg">
<path fill-rule="evenodd" clip-rule="evenodd" d="M51.0493 0.0232725C50.9126 0.0513476 50.7153 0.16924 50.6108 0.285384C50.439 0.476201 49.9885 2.13205 49.61 3.9638C49.5307 4.34823 49.4325 4.70179 49.392 4.74944C49.3516 4.79697 48.617 4.68478 47.7595 4.50002C44.4483 3.7865 40.8335 3.23571 36.9327 2.85047C33.7655 2.53768 26.3288 2.41187 23.0702 2.61585C15.9768 3.06004 9.77124 4.10953 2.9312 6.02167C0.994333 6.56313 0.647713 6.74358 0.279547 7.40224C-0.224973 8.30495 -0.0425116 9.0723 0.793914 9.56518C1.43386 9.94227 2.01693 9.9262 3.51044 9.49016C9.64949 7.69802 16.5399 6.51851 23.2626 6.10927C26.1555 5.93313 33.4818 6.03215 36.1797 6.28378C39.7806 6.61963 43.3819 7.15224 46.5279 7.81416C47.3036 7.97737 48.0816 8.14116 48.2569 8.17797C48.4322 8.21478 48.5755 8.28526 48.5755 8.33442C48.5755 8.38358 48.4191 9.11656 48.2279 9.96324C47.8035 11.8435 47.7969 12.1032 48.1648 12.4731C48.5948 12.9056 49.0429 12.8453 50.1281 12.2087C50.6441 11.906 52.3174 11.0252 53.8466 10.2513C56.4176 8.95033 56.6433 8.81135 56.8436 8.40432C57.0417 8.00206 57.0456 7.92669 56.8892 7.52642C56.4875 6.49801 52.6005 0.547379 52.1311 0.242165C51.8245 0.0427268 51.3864 -0.0459249 51.0493 0.0232725ZM26.4888 12.4585C25.5205 12.6947 24.6176 13.2076 23.7986 13.9865C22.9079 14.8337 22.3915 15.6417 21.9261 16.9165C21.6481 17.6774 18.0309 28.3628 14.5588 38.679C14.0844 40.0886 13.5377 41.6919 13.3441 42.2421L12.9919 43.2422L12.1032 43.4513C9.32198 44.1058 7.32499 45.1806 5.51219 46.9989C1.37953 51.1439 -0.589199 57.5549 0.332723 63.8656C0.645745 66.0089 1.63938 69.3047 2.69974 71.7173C5.15132 77.2955 9.00062 81.2755 14.574 83.995C21.1653 87.2111 26.7822 87.8446 31.4703 85.9006C34.3404 84.7105 38.1926 81.5838 39.8458 79.1025C42.3966 75.2742 45.4924 68.6228 49.0359 59.3567C50.3675 55.8745 50.4276 55.6757 50.4284 54.7473C50.4296 53.4399 49.8911 52.1146 48.9279 51.0549C47.9163 49.9419 46.7664 49.3629 45.1833 49.1694L44.5136 49.0875L44.6028 48.6595C44.7809 47.8054 44.6809 46.4117 44.3791 45.5403C43.7138 43.6197 42.3863 42.3006 40.4617 41.6478C39.8165 41.429 39.537 41.4016 38.4387 41.4501C37.7379 41.4809 37.0471 41.5445 36.9038 41.5915C36.6576 41.672 36.643 41.6452 36.6417 41.1099C36.6361 38.8118 34.8316 36.5715 32.4787 35.9415C31.6556 35.7211 30.0621 35.7756 29.2462 36.0521C28.4636 36.3171 28.3784 36.3329 28.4614 36.1977C28.5149 36.1107 29.2793 33.7533 32.4654 23.8497C33.8751 19.4676 34.0019 18.8227 33.7493 17.3169C33.1819 13.9337 29.7782 11.6561 26.4888 12.4585ZM29.2288 15.2144C30.6535 15.8616 31.4515 17.4048 31.1936 19.014C31.1403 19.3467 29.6113 24.222 27.7961 29.848C25.9808 35.4739 24.2333 40.8956 23.913 41.896C23.3993 43.5004 23.3445 43.7656 23.4485 44.1446C23.6646 44.9317 24.7931 45.3046 25.4314 44.7997C25.6755 44.6067 27.384 41.698 28.1266 40.2115C28.4334 39.5973 29.3501 38.797 30.0031 38.5732C31.6694 38.0023 33.4509 38.9008 33.9285 40.5531C34.1945 41.4729 34.0958 42.1227 33.3996 44.0372C33.0809 44.9134 32.8201 45.7333 32.8201 45.8591C32.8201 46.488 33.4904 47.1248 34.1524 47.1248C34.7133 47.1248 35.0721 46.8263 35.4714 46.0272C35.6909 45.5878 36.0569 45.0857 36.3268 44.8533C38.047 43.3728 40.6707 43.878 41.7155 45.8912C41.9725 46.3863 42.0239 46.6379 42.0267 47.4161C42.0299 48.3062 41.982 48.4795 40.9585 51.2805C40.3691 52.8933 39.8871 54.3349 39.8873 54.4841C39.8879 54.8752 40.3015 55.4995 40.6475 55.6318C41.7016 56.0349 42.1775 55.5729 42.9609 53.3864L43.5348 51.7846L44.4622 51.7858C45.6303 51.7872 46.348 52.0947 47.0472 52.8935C47.6107 53.5374 47.9452 54.4848 47.8166 55.0735C47.6356 55.9017 45.1283 62.3171 43.5017 66.1134C42.1186 69.3416 41.2908 71.1304 40.0919 73.4822C38.4671 76.6694 37.6962 77.8583 36.4114 79.1573C31.1834 84.4437 26.5105 85.5796 19.6134 83.2408C13.3313 81.1105 9.13454 77.9134 6.31247 73.1081C5.13175 71.0978 4.03362 68.2583 3.25349 65.1988C2.88533 63.7545 2.87791 63.6744 2.8793 61.1624C2.88058 58.8238 2.90803 58.471 3.19279 57.1314C4.1183 52.7776 6.08159 49.4152 8.73382 47.6423C9.48892 47.1374 11.8116 46.1138 11.9304 46.2334C11.9637 46.2667 11.3338 48.2251 10.531 50.5853C9.68992 53.0575 9.07117 55.0598 9.07117 55.3091C9.07117 55.9114 9.54974 56.4378 10.1717 56.5199C10.8836 56.6136 11.35 56.2327 11.6903 55.2794C11.9466 54.5609 16.4915 41.1199 21.9908 24.8162C23.3739 20.7156 24.625 17.1509 24.7708 16.8946C25.1578 16.2147 25.8453 15.563 26.5064 15.2495C27.2711 14.8867 28.4735 14.8713 29.2288 15.2144Z" fill="#19105F"/>
</svg>
